<?xml version="1.0" encoding="UTF-8" standalone="no"?>
<!DOCTYPE svg PUBLIC "-//W3C//DTD SVG 1.1//EN" "http://www.w3.org/Graphics/SVG/1.1/DTD/svg11.dtd">
<svg xmlns="http://www.w3.org/2000/svg" version="1.1" viewBox="0.00 0.00 300.00 300.00">
<g stroke-width="2.00" fill="none" stroke-linecap="butt">
<path stroke="#f7f7f7" vector-effect="non-scaling-stroke" d="
  M 21.03 0.00
  Q 19.44 9.59 20.12 19.39
  A 0.63 0.62 -1.7 0 1 19.48 20.06
  L 0.93 19.84
  Q 0.47 19.84 0.29 20.26
  L 0.00 20.94"
/>
<path stroke="#f7f7f7" vector-effect="non-scaling-stroke" d="
  M 39.81 0.00
  L 40.00 20.00"
/>
<path stroke="#f7f7f7" vector-effect="non-scaling-stroke" d="
  M 40.00 20.00
  L 20.77 20.10
  Q 20.08 20.10 20.07 20.80
  L 19.97 39.31
  A 0.56 0.56 0.0 0 1 19.44 39.86
  Q 9.79 40.35 0.00 39.60"
/>
<path stroke="#f7f7f7" vector-effect="non-scaling-stroke" d="
  M 60.83 0.00
  Q 59.53 9.74 60.10 19.18
  Q 60.16 20.04 59.30 20.04
  L 40.00 20.00"
/>
<path stroke="#f7f7f7" vector-effect="non-scaling-stroke" d="
  M 79.92 0.00
  L 79.96 19.30
  A 0.70 0.69 90.0 0 1 79.27 20.00
  L 60.53 20.00
  Q 60.02 20.00 60.02 20.51
  C 60.00 23.77 60.77 37.49 59.08 39.43
  C 57.66 41.06 43.36 40.03 40.52 39.93
  Q 40.01 39.91 40.01 39.40
  L 40.00 20.00"
/>
<path stroke="#f7f7f7" vector-effect="non-scaling-stroke" d="
  M 100.78 0.00
  Q 99.32 9.54 100.25 19.21"
/>
<path stroke="#9ab1d0" vector-effect="non-scaling-stroke" d="
  M 100.25 19.21
  L 92.30 22.45"
/>
<path stroke="#f7f7f7" vector-effect="non-scaling-stroke" d="
  M 92.30 22.45
  Q 87.22 18.62 80.78 20.35
  Q 80.39 20.46 80.29 20.85
  Q 79.27 24.78 80.75 28.46"
/>
<path stroke="#9ab1d0" vector-effect="non-scaling-stroke" d="
  M 80.75 28.46
  Q 47.56 47.82 28.25 81.04"
/>
<path stroke="#f7f7f7" vector-effect="non-scaling-stroke" d="
  M 28.25 81.04
  Q 24.59 79.83 20.61 80.33
  Q 20.12 80.40 20.09 80.90
  Q 19.77 87.69 20.04 89.72
  Q 20.21 91.09 22.29 92.75"
/>
<path stroke="#9ab1d0" vector-effect="non-scaling-stroke" d="
  M 22.29 92.75
  L 18.96 100.92"
/>
<path stroke="#f7f7f7" vector-effect="non-scaling-stroke" d="
  M 18.96 100.92
  Q 9.91 99.72 0.75 100.05
  Q 0.28 100.06 0.27 100.54
  Q 0.26 100.95 0.00 101.19"
/>
<path stroke="#f7f7f7" vector-effect="non-scaling-stroke" d="
  M 0.00 79.40
  Q 8.26 80.42 18.80 80.02
  A 1.25 1.24 89.1 0 0 20.00 78.77
  L 20.00 60.53
  Q 20.00 60.06 19.53 60.05
  L 0.91 59.87
  Q 0.37 59.87 0.29 60.40
  L 0.00 62.44"
/>
<path stroke="#f7f7f7" vector-effect="non-scaling-stroke" d="
  M 20.01 40.70
  L 19.97 59.24
  A 0.74 0.74 0.0 0 0 20.71 59.98
  L 37.21 60.01
  A 2.78 2.24 0.1 0 0 40.00 57.78
  L 40.02 42.24
  A 2.78 2.24 0.1 0 0 37.25 39.99
  L 20.75 39.96
  A 0.74 0.74 0.0 0 0 20.01 40.70"
/>
<path stroke="#f7f7f7" vector-effect="non-scaling-stroke" d="
  M 119.81 0.00
  L 120.25 13.21"
/>
<path stroke="#92a9c7" vector-effect="non-scaling-stroke" d="
  M 120.25 13.21
  L 100.25 19.21"
/>
<path stroke="#f7f7f7" vector-effect="non-scaling-stroke" d="
  M 140.46 0.00
  L 139.75 10.46"
/>
<path stroke="#9ab1d0" vector-effect="non-scaling-stroke" d="
  M 139.75 10.46
  L 120.25 13.21"
/>
<path stroke="#f7f7f7" vector-effect="non-scaling-stroke" d="
  M 159.81 0.00
  Q 160.31 5.23 159.75 10.46"
/>
<path stroke="#92a9c7" vector-effect="non-scaling-stroke" d="
  M 159.75 10.46
  L 139.75 10.46"
/>
<path stroke="#f7f7f7" vector-effect="non-scaling-stroke" d="
  M 180.42 0.00
  L 179.96 13.25"
/>
<path stroke="#9ab1d0" vector-effect="non-scaling-stroke" d="
  M 179.96 13.25
  L 159.75 10.46"
/>
<path stroke="#f7f7f7" vector-effect="non-scaling-stroke" d="
  M 199.81 0.00
  Q 200.36 9.52 199.46 19.00"
/>
<path stroke="#92a9c7" vector-effect="non-scaling-stroke" d="
  M 199.46 19.00
  L 179.96 13.25"
/>
<path stroke="#f7f7f7" vector-effect="non-scaling-stroke" d="
  M 221.04 0.00
  Q 219.39 9.73 220.15 18.94
  Q 220.24 20.00 221.31 20.00
  L 239.00 20.00
  Q 239.61 20.00 239.65 19.39
  Q 240.34 9.62 239.81 0.00"
/>
<path stroke="#f7f7f7" vector-effect="non-scaling-stroke" d="
  M 260.81 0.00
  Q 259.48 9.93 260.00 20.00"
/>
<path stroke="#f7f7f7" vector-effect="non-scaling-stroke" d="
  M 260.00 20.00
  L 241.84 19.73
  Q 240.00 19.71 240.00 21.55
  L 240.00 37.75
  A 2.25 2.25 0.0 0 0 242.25 40.00
  L 259.03 40.00
  A 0.87 0.87 0.0 0 0 259.90 39.13
  L 260.00 20.00"
/>
<path stroke="#f7f7f7" vector-effect="non-scaling-stroke" d="
  M 260.00 20.00
  L 279.48 20.01
  Q 280.10 20.02 280.09 19.39
  L 279.81 0.00"
/>
<path stroke="#f7f7f7" vector-effect="non-scaling-stroke" d="
  M 300.00 20.39
  L 281.23 19.84
  Q 280.00 19.80 280.00 21.03
  L 280.00 39.48
  Q 280.00 39.95 280.47 39.94
  L 300.00 39.81"
/>
<path stroke="#f7f7f7" vector-effect="non-scaling-stroke" d="
  M 300.00 60.20
  L 280.39 59.97
  A 0.39 0.39 0.0 0 0 280.00 60.36
  L 280.00 79.19
  Q 280.00 79.62 280.43 79.66
  Q 290.22 80.47 300.00 79.65"
/>
<path stroke="#f7f7f7" vector-effect="non-scaling-stroke" d="
  M 300.00 100.61
  Q 290.61 98.92 281.25 101.23"
/>
<path stroke="#9ab1d0" vector-effect="non-scaling-stroke" d="
  M 281.25 101.23
  L 278.22 93.15"
/>
<path stroke="#f7f7f7" vector-effect="non-scaling-stroke" d="
  M 278.22 93.15
  Q 281.25 87.28 279.65 80.68
  Q 279.55 80.27 279.13 80.25
  Q 275.40 80.07 272.00 81.29"
/>
<path stroke="#9ab1d0" vector-effect="non-scaling-stroke" d="
  M 272.00 81.29
  Q 246.58 37.57 199.46 19.00"
/>
<path stroke="#f7f7f7" vector-effect="non-scaling-stroke" d="
  M 280.0150 41.3674
  A 1.36 1.36 0.0 0 0 278.6574 40.0050
  L 261.4374 39.9750
  A 1.36 1.36 0.0 0 0 260.0750 41.3326
  L 260.0450 58.5526
  A 1.36 1.36 0.0 0 0 261.4026 59.9150
  L 278.6226 59.9450
  A 1.36 1.36 0.0 0 0 279.9850 58.5874
  L 280.0150 41.3674"
/>
<path stroke="#92a9c7" vector-effect="non-scaling-stroke" d="
  M 272.00 81.29
  L 278.22 93.15"
/>
<path stroke="#92a9c7" vector-effect="non-scaling-stroke" d="
  M 281.25 101.23
  Q 284.66 110.87 286.96 120.75"
/>
<path stroke="#9ab1d0" vector-effect="non-scaling-stroke" d="
  M 286.96 120.75
  Q 288.88 130.93 289.79 141.25"
/>
<path stroke="#92a9c7" vector-effect="non-scaling-stroke" d="
  M 289.79 141.25
  Q 290.22 150.76 289.54 160.25"
/>
<path stroke="#9ab1d0" vector-effect="non-scaling-stroke" d="
  M 289.54 160.25
  Q 288.80 170.39 286.67 180.60"
/>
<path stroke="#92a9c7" vector-effect="non-scaling-stroke" d="
  M 286.67 180.60
  L 281.29 199.00"
/>
<path stroke="#9ab1d0" vector-effect="non-scaling-stroke" d="
  M 281.29 199.00
  Q 262.87 246.21 219.21 271.75"
/>
<path stroke="#92a9c7" vector-effect="non-scaling-stroke" d="
  M 219.21 271.75
  L 207.50 277.71"
/>
<path stroke="#9ab1d0" vector-effect="non-scaling-stroke" d="
  M 207.50 277.71
  L 198.46 281.50"
/>
<path stroke="#92a9c7" vector-effect="non-scaling-stroke" d="
  M 198.46 281.50
  L 180.00 286.79"
/>
<path stroke="#9ab1d0" vector-effect="non-scaling-stroke" d="
  M 180.00 286.79
  Q 169.85 288.94 159.50 289.54"
/>
<path stroke="#92a9c7" vector-effect="non-scaling-stroke" d="
  M 159.50 289.54
  Q 149.91 290.28 140.29 289.75"
/>
<path stroke="#9ab1d0" vector-effect="non-scaling-stroke" d="
  M 140.29 289.75
  L 120.00 286.79"
/>
<path stroke="#92a9c7" vector-effect="non-scaling-stroke" d="
  M 120.00 286.79
  L 101.17 281.33"
/>
<path stroke="#9ab1d0" vector-effect="non-scaling-stroke" d="
  M 101.17 281.33
  Q 53.87 262.90 28.23 218.96"
/>
<path stroke="#92a9c7" vector-effect="non-scaling-stroke" d="
  M 28.23 218.96
  L 22.33 207.29"
/>
<path stroke="#9ab1d0" vector-effect="non-scaling-stroke" d="
  M 22.33 207.29
  L 18.78 198.78"
/>
<path stroke="#92a9c7" vector-effect="non-scaling-stroke" d="
  M 18.78 198.78
  L 13.30 179.92"
/>
<path stroke="#9ab1d0" vector-effect="non-scaling-stroke" d="
  M 13.30 179.92
  Q 11.44 170.54 10.57 160.60"
/>
<path stroke="#92a9c7" vector-effect="non-scaling-stroke" d="
  M 10.57 160.60
  Q 9.91 150.86 10.46 140.75"
/>
<path stroke="#9ab1d0" vector-effect="non-scaling-stroke" d="
  M 10.46 140.75
  Q 11.30 130.32 13.25 120.04"
/>
<path stroke="#92a9c7" vector-effect="non-scaling-stroke" d="
  M 13.25 120.04
  L 18.96 100.92"
/>
<path stroke="#92a9c7" vector-effect="non-scaling-stroke" d="
  M 22.29 92.75
  L 28.25 81.04"
/>
<path stroke="#92a9c7" vector-effect="non-scaling-stroke" d="
  M 80.75 28.46
  L 92.30 22.45"
/>
<path stroke="#9ab1d0" vector-effect="non-scaling-stroke" d="
  M 131.92 135.27
  L 108.52 135.20
  Q 108.00 135.20 108.00 135.72
  L 108.00 162.75
  Q 108.00 163.50 108.75 163.50
  L 132.00 163.50
  Q 132.50 163.50 132.50 164.00
  L 132.50 235.50
  Q 132.50 236.00 133.00 236.00
  L 161.25 236.00
  A 0.50 0.50 0.0 0 0 161.75 235.50
  L 161.75 163.94
  Q 161.75 163.38 162.31 163.38
  L 185.19 163.54
  Q 185.93 163.54 186.03 162.81
  L 189.59 135.93
  Q 189.68 135.25 189.00 135.25
  L 162.48 135.25
  Q 161.87 135.25 161.85 134.64
  Q 161.48 120.46 161.83 114.81
  Q 162.52 103.89 173.51 103.67
  Q 181.87 103.51 190.09 103.47
  Q 190.52 103.47 190.52 103.03
  L 190.49 78.99
  Q 190.49 78.11 189.61 78.04
  C 179.43 77.25 166.62 76.03 157.23 78.67
  C 129.94 86.36 132.39 110.88 132.51 134.68
  Q 132.52 135.27 131.92 135.27"
/>
<path stroke="#f7f7f7" vector-effect="non-scaling-stroke" d="
  M 13.25 120.04
  Q 6.50 120.62 0.00 119.12"
/>
<path stroke="#f7f7f7" vector-effect="non-scaling-stroke" d="
  M 300.00 119.42
  Q 295.14 120.41 288.51 119.71
  Q 287.54 119.61 286.96 120.75"
/>
<path stroke="#f7f7f7" vector-effect="non-scaling-stroke" d="
  M 10.46 140.75
  Q 5.17 139.04 0.00 140.82"
/>
<path stroke="#f7f7f7" vector-effect="non-scaling-stroke" d="
  M 300.00 143.06
  L 299.71 140.64
  Q 299.63 140.04 299.03 140.00
  Q 294.31 139.72 289.79 141.25"
/>
<path stroke="#f7f7f7" vector-effect="non-scaling-stroke" d="
  M 300.00 158.97
  Q 294.92 160.32 289.54 160.25"
/>
<path stroke="#f7f7f7" vector-effect="non-scaling-stroke" d="
  M 10.57 160.60
  Q 6.86 159.30 2.51 160.01
  Q 0.97 160.26 0.00 158.94"
/>
<path stroke="#f7f7f7" vector-effect="non-scaling-stroke" d="
  M 300.00 183.06
  L 299.72 180.64
  Q 299.65 180.07 299.09 180.05
  Q 292.92 179.75 286.67 180.60"
/>
<path stroke="#f7f7f7" vector-effect="non-scaling-stroke" d="
  M 13.30 179.92
  L 0.97 180.03
  Q 0.50 180.04 0.27 180.45
  L 0.00 180.94"
/>
<path stroke="#f7f7f7" vector-effect="non-scaling-stroke" d="
  M 18.78 198.78
  Q 9.42 201.28 0.00 199.13"
/>
<path stroke="#f7f7f7" vector-effect="non-scaling-stroke" d="
  M 300.00 199.50
  L 283.78 200.04
  Q 283.31 200.05 282.89 199.84
  L 281.29 199.00"
/>
<path stroke="#f7f7f7" vector-effect="non-scaling-stroke" d="
  M 22.33 207.29
  L 20.80 208.16
  Q 20.34 208.43 20.32 208.96
  L 19.96 219.54
  Q 19.94 220.19 20.58 220.09
  L 28.23 218.96"
/>
<path stroke="#f7f7f7" vector-effect="non-scaling-stroke" d="
  M 101.17 281.33
  Q 99.20 290.01 100.22 299.09
  Q 100.27 299.57 100.75 299.70
  L 101.94 300.00"
/>
<path stroke="#f7f7f7" vector-effect="non-scaling-stroke" d="
  M 79.41 300.00
  Q 80.47 290.35 79.86 280.52
  A 0.46 0.46 0.0 0 0 79.41 280.09
  L 61.36 279.96
  Q 60.18 279.95 60.12 281.13
  Q 59.61 290.81 60.47 300.00"
/>
<path stroke="#f7f7f7" vector-effect="non-scaling-stroke" d="
  M 39.69 300.00
  L 40.00 280.00
  L 59.21 280.00
  A 0.84 0.83 89.7 0 0 60.04 279.15
  L 59.89 262.18
  A 2.21 2.20 -0.3 0 0 57.68 260.00
  L 40.31 260.00
  Q 39.87 260.00 39.88 259.56
  L 40.05 241.56
  Q 40.06 240.00 38.50 240.00
  L 21.15 240.00
  A 1.16 1.15 90.0 0 0 20.00 241.16
  L 20.00 259.53
  Q 20.00 260.07 19.47 260.06
  L 0.89 259.84
  Q 0.41 259.84 0.27 260.30
  L 0.00 261.19"
/>
<path stroke="#f7f7f7" vector-effect="non-scaling-stroke" d="
  M 0.00 239.59
  Q 9.69 240.32 19.41 239.91
  Q 19.99 239.88 19.99 239.30
  L 19.99 220.74
  A 0.70 0.69 90.0 0 0 19.30 220.04
  L 0.92 219.92
  Q 0.45 219.91 0.26 220.34
  L 0.00 220.94"
/>
<path stroke="#f7f7f7" vector-effect="non-scaling-stroke" d="
  M 300.00 220.40
  Q 290.29 219.69 280.88 220.09
  A 0.92 0.92 0.0 0 0 280.00 221.01
  L 280.00 239.46
  Q 280.00 239.88 280.42 239.88
  L 300.00 239.68"
/>
<path stroke="#f7f7f7" vector-effect="non-scaling-stroke" d="
  M 300.00 260.40
  Q 290.41 259.72 280.88 260.07
  A 0.92 0.91 89.0 0 0 280.00 260.99
  L 280.00 279.40
  Q 280.00 280.06 279.35 280.05
  L 261.16 279.88
  A 1.06 1.06 0.0 0 0 260.09 280.89
  Q 259.64 290.84 260.47 300.00"
/>
<path stroke="#f7f7f7" vector-effect="non-scaling-stroke" d="
  M 239.40 300.00
  Q 240.47 290.72 239.86 281.09
  Q 239.79 280.00 238.70 280.00
  L 220.94 280.00
  A 0.81 0.81 0.0 0 0 220.13 280.81
  L 219.95 298.97
  Q 219.94 299.57 220.52 299.74
  L 221.44 300.00"
/>
<path stroke="#f7f7f7" vector-effect="non-scaling-stroke" d="
  M 199.57 300.00
  Q 200.46 291.41 199.72 282.78
  Q 199.68 282.31 199.21 282.27
  Q 198.55 282.22 198.46 281.50"
/>
<path stroke="#f7f7f7" vector-effect="non-scaling-stroke" d="
  M 207.50 277.71
  C 209.25 280.81 215.51 280.07 218.79 279.75
  A 1.50 1.49 -1.3 0 0 220.15 278.33
  Q 220.33 275.06 219.21 271.75"
/>
<path stroke="#f7f7f7" vector-effect="non-scaling-stroke" d="
  M 260.84 259.95
  L 279.12 260.05
  A 0.85 0.85 0.0 0 0 279.97 259.20
  L 280.06 242.60
  A 2.65 2.53 -89.7 0 0 277.54 239.94
  L 262.62 239.86
  A 2.65 2.53 -89.7 0 0 260.08 242.50
  L 259.99 259.10
  A 0.85 0.85 0.0 0 0 260.84 259.95"
/>
<path stroke="#f7f7f7" vector-effect="non-scaling-stroke" d="
  M 243.31 260.06
  Q 239.99 260.39 239.97 263.75
  Q 239.94 271.60 240.04 279.52
  Q 240.04 280.00 240.52 280.00
  L 259.22 280.00
  A 0.78 0.78 0.0 0 0 260.00 279.22
  L 260.00 260.79
  Q 260.00 260.15 259.35 260.13
  Q 247.11 259.69 243.31 260.06"
/>
<path stroke="#f7f7f7" vector-effect="non-scaling-stroke" d="
  M 40.00 280.00
  L 39.97 260.50
  Q 39.96 260.00 39.46 260.00
  L 20.56 260.00
  A 0.56 0.56 0.0 0 0 20.00 260.56
  L 20.00 279.47
  Q 20.00 279.94 20.46 279.94
  L 40.00 280.00"
/>
<path stroke="#f7f7f7" vector-effect="non-scaling-stroke" d="
  M 23.94 300.00
  L 20.58 299.48
  Q 20.00 299.39 20.00 298.80
  L 20.00 280.73
  A 0.89 0.89 0.0 0 0 19.07 279.84
  Q 8.71 280.32 0.00 279.58"
/>
<path stroke="#f7f7f7" vector-effect="non-scaling-stroke" d="
  M 300.00 279.81
  L 280.52 279.97
  Q 279.95 279.97 279.94 280.54
  L 279.60 300.00"
/>
<path stroke="#f7f7f7" vector-effect="non-scaling-stroke" d="
  M 120.00 286.79
  L 119.56 300.00"
/>
<path stroke="#f7f7f7" vector-effect="non-scaling-stroke" d="
  M 180.76 300.00
  Q 179.43 293.49 180.00 286.79"
/>
<path stroke="#f7f7f7" vector-effect="non-scaling-stroke" d="
  M 140.29 289.75
  Q 140.43 293.64 140.03 297.50
  Q 139.76 300.05 142.44 300.00"
/>
<path stroke="#f7f7f7" vector-effect="non-scaling-stroke" d="
  M 159.44 300.00
  Q 160.61 294.78 159.50 289.54"
/>
</g>
<path fill="#ffffff" d="
  M 0.00 0.00
  L 21.03 0.00
  Q 19.44 9.59 20.12 19.39
  A 0.63 0.62 -1.7 0 1 19.48 20.06
  L 0.93 19.84
  Q 0.47 19.84 0.29 20.26
  L 0.00 20.94
  L 0.00 0.00
  Z"
/>
<path fill="#eeeeee" d="
  M 21.03 0.00
  L 39.81 0.00
  L 40.00 20.00
  L 20.77 20.10
  Q 20.08 20.10 20.07 20.80
  L 19.97 39.31
  A 0.56 0.56 0.0 0 1 19.44 39.86
  Q 9.79 40.35 0.00 39.60
  L 0.00 20.94
  L 0.29 20.26
  Q 0.47 19.84 0.93 19.84
  L 19.48 20.06
  A 0.63 0.62 -1.7 0 0 20.12 19.39
  Q 19.44 9.59 21.03 0.00
  Z"
/>
<path fill="#ffffff" d="
  M 39.81 0.00
  L 60.83 0.00
  Q 59.53 9.74 60.10 19.18
  Q 60.16 20.04 59.30 20.04
  L 40.00 20.00
  L 39.81 0.00
  Z"
/>
<path fill="#eeeeee" d="
  M 60.83 0.00
  L 79.92 0.00
  L 79.96 19.30
  A 0.70 0.69 90.0 0 1 79.27 20.00
  L 60.53 20.00
  Q 60.02 20.00 60.02 20.51
  C 60.00 23.77 60.77 37.49 59.08 39.43
  C 57.66 41.06 43.36 40.03 40.52 39.93
  Q 40.01 39.91 40.01 39.40
  L 40.00 20.00
  L 59.30 20.04
  Q 60.16 20.04 60.10 19.18
  Q 59.53 9.74 60.83 0.00
  Z"
/>
<path fill="#ffffff" d="
  M 79.92 0.00
  L 100.78 0.00
  Q 99.32 9.54 100.25 19.21
  L 92.30 22.45
  Q 87.22 18.62 80.78 20.35
  Q 80.39 20.46 80.29 20.85
  Q 79.27 24.78 80.75 28.46
  Q 47.56 47.82 28.25 81.04
  Q 24.59 79.83 20.61 80.33
  Q 20.12 80.40 20.09 80.90
  Q 19.77 87.69 20.04 89.72
  Q 20.21 91.09 22.29 92.75
  L 18.96 100.92
  Q 9.91 99.72 0.75 100.05
  Q 0.28 100.06 0.27 100.54
  Q 0.26 100.95 0.00 101.19
  L 0.00 79.40
  Q 8.26 80.42 18.80 80.02
  A 1.25 1.24 89.1 0 0 20.00 78.77
  L 20.00 60.53
  Q 20.00 60.06 19.53 60.05
  L 0.91 59.87
  Q 0.37 59.87 0.29 60.40
  L 0.00 62.44
  L 0.00 39.60
  Q 9.79 40.35 19.44 39.86
  A 0.56 0.56 0.0 0 0 19.97 39.31
  L 20.07 20.80
  Q 20.08 20.10 20.77 20.10
  L 40.00 20.00
  L 40.01 39.40
  Q 40.01 39.91 40.52 39.93
  C 43.36 40.03 57.66 41.06 59.08 39.43
  C 60.77 37.49 60.00 23.77 60.02 20.51
  Q 60.02 20.00 60.53 20.00
  L 79.27 20.00
  A 0.70 0.69 90.0 0 0 79.96 19.30
  L 79.92 0.00
  Z
  M 20.01 40.70
  L 19.97 59.24
  A 0.74 0.74 0.0 0 0 20.71 59.98
  L 37.21 60.01
  A 2.78 2.24 0.1 0 0 40.00 57.78
  L 40.02 42.24
  A 2.78 2.24 0.1 0 0 37.25 39.99
  L 20.75 39.96
  A 0.74 0.74 0.0 0 0 20.01 40.70
  Z"
/>
<path fill="#eeeeee" d="
  M 100.78 0.00
  L 119.81 0.00
  L 120.25 13.21
  L 100.25 19.21
  Q 99.32 9.54 100.78 0.00
  Z"
/>
<path fill="#ffffff" d="
  M 119.81 0.00
  L 140.46 0.00
  L 139.75 10.46
  L 120.25 13.21
  L 119.81 0.00
  Z"
/>
<path fill="#eeeeee" d="
  M 140.46 0.00
  L 159.81 0.00
  Q 160.31 5.23 159.75 10.46
  L 139.75 10.46
  L 140.46 0.00
  Z"
/>
<path fill="#ffffff" d="
  M 159.81 0.00
  L 180.42 0.00
  L 179.96 13.25
  L 159.75 10.46
  Q 160.31 5.23 159.81 0.00
  Z"
/>
<path fill="#eeeeee" d="
  M 180.42 0.00
  L 199.81 0.00
  Q 200.36 9.52 199.46 19.00
  L 179.96 13.25
  L 180.42 0.00
  Z"
/>
<path fill="#ffffff" d="
  M 199.81 0.00
  L 221.04 0.00
  Q 219.39 9.73 220.15 18.94
  Q 220.24 20.00 221.31 20.00
  L 239.00 20.00
  Q 239.61 20.00 239.65 19.39
  Q 240.34 9.62 239.81 0.00
  L 260.81 0.00
  Q 259.48 9.93 260.00 20.00
  L 241.84 19.73
  Q 240.00 19.71 240.00 21.55
  L 240.00 37.75
  A 2.25 2.25 0.0 0 0 242.25 40.00
  L 259.03 40.00
  A 0.87 0.87 0.0 0 0 259.90 39.13
  L 260.00 20.00
  L 279.48 20.01
  Q 280.10 20.02 280.09 19.39
  L 279.81 0.00
  L 300.00 0.00
  L 300.00 20.39
  L 281.23 19.84
  Q 280.00 19.80 280.00 21.03
  L 280.00 39.48
  Q 280.00 39.95 280.47 39.94
  L 300.00 39.81
  L 300.00 60.20
  L 280.39 59.97
  A 0.39 0.39 0.0 0 0 280.00 60.36
  L 280.00 79.19
  Q 280.00 79.62 280.43 79.66
  Q 290.22 80.47 300.00 79.65
  L 300.00 100.61
  Q 290.61 98.92 281.25 101.23
  L 278.22 93.15
  Q 281.25 87.28 279.65 80.68
  Q 279.55 80.27 279.13 80.25
  Q 275.40 80.07 272.00 81.29
  Q 246.58 37.57 199.46 19.00
  Q 200.36 9.52 199.81 0.00
  Z
  M 280.0150 41.3674
  A 1.36 1.36 0.0 0 0 278.6574 40.0050
  L 261.4374 39.9750
  A 1.36 1.36 0.0 0 0 260.0750 41.3326
  L 260.0450 58.5526
  A 1.36 1.36 0.0 0 0 261.4026 59.9150
  L 278.6226 59.9450
  A 1.36 1.36 0.0 0 0 279.9850 58.5874
  L 280.0150 41.3674
  Z"
/>
<path fill="#eeeeee" d="
  M 221.04 0.00
  L 239.81 0.00
  Q 240.34 9.62 239.65 19.39
  Q 239.61 20.00 239.00 20.00
  L 221.31 20.00
  Q 220.24 20.00 220.15 18.94
  Q 219.39 9.73 221.04 0.00
  Z"
/>
<path fill="#eeeeee" d="
  M 260.81 0.00
  L 279.81 0.00
  L 280.09 19.39
  Q 280.10 20.02 279.48 20.01
  L 260.00 20.00
  Q 259.48 9.93 260.81 0.00
  Z"
/>
<path fill="#3563a0" d="
  M 159.75 10.46
  L 179.96 13.25
  L 199.46 19.00
  Q 246.58 37.57 272.00 81.29
  L 278.22 93.15
  L 281.25 101.23
  Q 284.66 110.87 286.96 120.75
  Q 288.88 130.93 289.79 141.25
  Q 290.22 150.76 289.54 160.25
  Q 288.80 170.39 286.67 180.60
  L 281.29 199.00
  Q 262.87 246.21 219.21 271.75
  L 207.50 277.71
  L 198.46 281.50
  L 180.00 286.79
  Q 169.85 288.94 159.50 289.54
  Q 149.91 290.28 140.29 289.75
  L 120.00 286.79
  L 101.17 281.33
  Q 53.87 262.90 28.23 218.96
  L 22.33 207.29
  L 18.78 198.78
  L 13.30 179.92
  Q 11.44 170.54 10.57 160.60
  Q 9.91 150.86 10.46 140.75
  Q 11.30 130.32 13.25 120.04
  L 18.96 100.92
  L 22.29 92.75
  L 28.25 81.04
  Q 47.56 47.82 80.75 28.46
  L 92.30 22.45
  L 100.25 19.21
  L 120.25 13.21
  L 139.75 10.46
  L 159.75 10.46
  Z
  M 131.92 135.27
  L 108.52 135.20
  Q 108.00 135.20 108.00 135.72
  L 108.00 162.75
  Q 108.00 163.50 108.75 163.50
  L 132.00 163.50
  Q 132.50 163.50 132.50 164.00
  L 132.50 235.50
  Q 132.50 236.00 133.00 236.00
  L 161.25 236.00
  A 0.50 0.50 0.0 0 0 161.75 235.50
  L 161.75 163.94
  Q 161.75 163.38 162.31 163.38
  L 185.19 163.54
  Q 185.93 163.54 186.03 162.81
  L 189.59 135.93
  Q 189.68 135.25 189.00 135.25
  L 162.48 135.25
  Q 161.87 135.25 161.85 134.64
  Q 161.48 120.46 161.83 114.81
  Q 162.52 103.89 173.51 103.67
  Q 181.87 103.51 190.09 103.47
  Q 190.52 103.47 190.52 103.03
  L 190.49 78.99
  Q 190.49 78.11 189.61 78.04
  C 179.43 77.25 166.62 76.03 157.23 78.67
  C 129.94 86.36 132.39 110.88 132.51 134.68
  Q 132.52 135.27 131.92 135.27
  Z"
/>
<path fill="#eeeeee" d="
  M 260.00 20.00
  L 259.90 39.13
  A 0.87 0.87 0.0 0 1 259.03 40.00
  L 242.25 40.00
  A 2.25 2.25 0.0 0 1 240.00 37.75
  L 240.00 21.55
  Q 240.00 19.71 241.84 19.73
  L 260.00 20.00
  Z"
/>
<path fill="#eeeeee" d="
  M 300.00 20.39
  L 300.00 39.81
  L 280.47 39.94
  Q 280.00 39.95 280.00 39.48
  L 280.00 21.03
  Q 280.00 19.80 281.23 19.84
  L 300.00 20.39
  Z"
/>
<path fill="#eeeeee" d="
  M 92.30 22.45
  L 80.75 28.46
  Q 79.27 24.78 80.29 20.85
  Q 80.39 20.46 80.78 20.35
  Q 87.22 18.62 92.30 22.45
  Z"
/>
<path fill="#eeeeee" d="
  M 20.01 40.70
  A 0.74 0.74 0.0 0 1 20.75 39.96
  L 37.25 39.99
  A 2.78 2.24 0.1 0 1 40.02 42.24
  L 40.00 57.78
  A 2.78 2.24 0.1 0 1 37.21 60.01
  L 20.71 59.98
  A 0.74 0.74 0.0 0 1 19.97 59.24
  L 20.01 40.70
  Z"
/>
<rect fill="#eeeeee" x="-9.97" y="-9.97" transform="translate(270.03,49.96) rotate(0.1)" width="19.94" height="19.94" rx="1.36"/>
<path fill="#eeeeee" d="
  M 0.00 79.40
  L 0.00 62.44
  L 0.29 60.40
  Q 0.37 59.87 0.91 59.87
  L 19.53 60.05
  Q 20.00 60.06 20.00 60.53
  L 20.00 78.77
  A 1.25 1.24 89.1 0 1 18.80 80.02
  Q 8.26 80.42 0.00 79.40
  Z"
/>
<path fill="#eeeeee" d="
  M 300.00 60.20
  L 300.00 79.65
  Q 290.22 80.47 280.43 79.66
  Q 280.00 79.62 280.00 79.19
  L 280.00 60.36
  A 0.39 0.39 0.0 0 1 280.39 59.97
  L 300.00 60.20
  Z"
/>
<path fill="#ffffff" d="
  M 132.51 134.68
  C 132.39 110.88 129.94 86.36 157.23 78.67
  C 166.62 76.03 179.43 77.25 189.61 78.04
  Q 190.49 78.11 190.49 78.99
  L 190.52 103.03
  Q 190.52 103.47 190.09 103.47
  Q 181.87 103.51 173.51 103.67
  Q 162.52 103.89 161.83 114.81
  Q 161.48 120.46 161.85 134.64
  Q 161.87 135.25 162.48 135.25
  L 189.00 135.25
  Q 189.68 135.25 189.59 135.93
  L 186.03 162.81
  Q 185.93 163.54 185.19 163.54
  L 162.31 163.38
  Q 161.75 163.38 161.75 163.94
  L 161.75 235.50
  A 0.50 0.50 0.0 0 1 161.25 236.00
  L 133.00 236.00
  Q 132.50 236.00 132.50 235.50
  L 132.50 164.00
  Q 132.50 163.50 132.00 163.50
  L 108.75 163.50
  Q 108.00 163.50 108.00 162.75
  L 108.00 135.72
  Q 108.00 135.20 108.52 135.20
  L 131.92 135.27
  Q 132.52 135.27 132.51 134.68
  Z"
/>
<path fill="#eeeeee" d="
  M 28.25 81.04
  L 22.29 92.75
  Q 20.21 91.09 20.04 89.72
  Q 19.77 87.69 20.09 80.90
  Q 20.12 80.40 20.61 80.33
  Q 24.59 79.83 28.25 81.04
  Z"
/>
<path fill="#eeeeee" d="
  M 278.22 93.15
  L 272.00 81.29
  Q 275.40 80.07 279.13 80.25
  Q 279.55 80.27 279.65 80.68
  Q 281.25 87.28 278.22 93.15
  Z"
/>
<path fill="#eeeeee" d="
  M 18.96 100.92
  L 13.25 120.04
  Q 6.50 120.62 0.00 119.12
  L 0.00 101.19
  Q 0.26 100.95 0.27 100.54
  Q 0.28 100.06 0.75 100.05
  Q 9.91 99.72 18.96 100.92
  Z"
/>
<path fill="#eeeeee" d="
  M 300.00 100.61
  L 300.00 119.42
  Q 295.14 120.41 288.51 119.71
  Q 287.54 119.61 286.96 120.75
  Q 284.66 110.87 281.25 101.23
  Q 290.61 98.92 300.00 100.61
  Z"
/>
<path fill="#ffffff" d="
  M 0.00 119.12
  Q 6.50 120.62 13.25 120.04
  Q 11.30 130.32 10.46 140.75
  Q 5.17 139.04 0.00 140.82
  L 0.00 119.12
  Z"
/>
<path fill="#ffffff" d="
  M 300.00 119.42
  L 300.00 143.06
  L 299.71 140.64
  Q 299.63 140.04 299.03 140.00
  Q 294.31 139.72 289.79 141.25
  Q 288.88 130.93 286.96 120.75
  Q 287.54 119.61 288.51 119.71
  Q 295.14 120.41 300.00 119.42
  Z"
/>
<path fill="#eeeeee" d="
  M 300.00 143.06
  L 300.00 158.97
  Q 294.92 160.32 289.54 160.25
  Q 290.22 150.76 289.79 141.25
  Q 294.31 139.72 299.03 140.00
  Q 299.63 140.04 299.71 140.64
  L 300.00 143.06
  Z"
/>
<path fill="#eeeeee" d="
  M 10.46 140.75
  Q 9.91 150.86 10.57 160.60
  Q 6.86 159.30 2.51 160.01
  Q 0.97 160.26 0.00 158.94
  L 0.00 140.82
  Q 5.17 139.04 10.46 140.75
  Z"
/>
<path fill="#ffffff" d="
  M 300.00 158.97
  L 300.00 183.06
  L 299.72 180.64
  Q 299.65 180.07 299.09 180.05
  Q 292.92 179.75 286.67 180.60
  Q 288.80 170.39 289.54 160.25
  Q 294.92 160.32 300.00 158.97
  Z"
/>
<path fill="#ffffff" d="
  M 0.00 158.94
  Q 0.97 160.26 2.51 160.01
  Q 6.86 159.30 10.57 160.60
  Q 11.44 170.54 13.30 179.92
  L 0.97 180.03
  Q 0.50 180.04 0.27 180.45
  L 0.00 180.94
  L 0.00 158.94
  Z"
/>
<path fill="#eeeeee" d="
  M 13.30 179.92
  L 18.78 198.78
  Q 9.42 201.28 0.00 199.13
  L 0.00 180.94
  L 0.27 180.45
  Q 0.50 180.04 0.97 180.03
  L 13.30 179.92
  Z"
/>
<path fill="#eeeeee" d="
  M 300.00 183.06
  L 300.00 199.50
  L 283.78 200.04
  Q 283.31 200.05 282.89 199.84
  L 281.29 199.00
  L 286.67 180.60
  Q 292.92 179.75 299.09 180.05
  Q 299.65 180.07 299.72 180.64
  L 300.00 183.06
  Z"
/>
<path fill="#ffffff" d="
  M 18.78 198.78
  L 22.33 207.29
  L 20.80 208.16
  Q 20.34 208.43 20.32 208.96
  L 19.96 219.54
  Q 19.94 220.19 20.58 220.09
  L 28.23 218.96
  Q 53.87 262.90 101.17 281.33
  Q 99.20 290.01 100.22 299.09
  Q 100.27 299.57 100.75 299.70
  L 101.94 300.00
  L 79.41 300.00
  Q 80.47 290.35 79.86 280.52
  A 0.46 0.46 0.0 0 0 79.41 280.09
  L 61.36 279.96
  Q 60.18 279.95 60.12 281.13
  Q 59.61 290.81 60.47 300.00
  L 39.69 300.00
  L 40.00 280.00
  L 59.21 280.00
  A 0.84 0.83 89.7 0 0 60.04 279.15
  L 59.89 262.18
  A 2.21 2.20 -0.3 0 0 57.68 260.00
  L 40.31 260.00
  Q 39.87 260.00 39.88 259.56
  L 40.05 241.56
  Q 40.06 240.00 38.50 240.00
  L 21.15 240.00
  A 1.16 1.15 90.0 0 0 20.00 241.16
  L 20.00 259.53
  Q 20.00 260.07 19.47 260.06
  L 0.89 259.84
  Q 0.41 259.84 0.27 260.30
  L 0.00 261.19
  L 0.00 239.59
  Q 9.69 240.32 19.41 239.91
  Q 19.99 239.88 19.99 239.30
  L 19.99 220.74
  A 0.70 0.69 90.0 0 0 19.30 220.04
  L 0.92 219.92
  Q 0.45 219.91 0.26 220.34
  L 0.00 220.94
  L 0.00 199.13
  Q 9.42 201.28 18.78 198.78
  Z"
/>
<path fill="#ffffff" d="
  M 281.29 199.00
  L 282.89 199.84
  Q 283.31 200.05 283.78 200.04
  L 300.00 199.50
  L 300.00 220.40
  Q 290.29 219.69 280.88 220.09
  A 0.92 0.92 0.0 0 0 280.00 221.01
  L 280.00 239.46
  Q 280.00 239.88 280.42 239.88
  L 300.00 239.68
  L 300.00 260.40
  Q 290.41 259.72 280.88 260.07
  A 0.92 0.91 89.0 0 0 280.00 260.99
  L 280.00 279.40
  Q 280.00 280.06 279.35 280.05
  L 261.16 279.88
  A 1.06 1.06 0.0 0 0 260.09 280.89
  Q 259.64 290.84 260.47 300.00
  L 239.40 300.00
  Q 240.47 290.72 239.86 281.09
  Q 239.79 280.00 238.70 280.00
  L 220.94 280.00
  A 0.81 0.81 0.0 0 0 220.13 280.81
  L 219.95 298.97
  Q 219.94 299.57 220.52 299.74
  L 221.44 300.00
  L 199.57 300.00
  Q 200.46 291.41 199.72 282.78
  Q 199.68 282.31 199.21 282.27
  Q 198.55 282.22 198.46 281.50
  L 207.50 277.71
  C 209.25 280.81 215.51 280.07 218.79 279.75
  A 1.50 1.49 -1.3 0 0 220.15 278.33
  Q 220.33 275.06 219.21 271.75
  Q 262.87 246.21 281.29 199.00
  Z
  M 260.84 259.95
  L 279.12 260.05
  A 0.85 0.85 0.0 0 0 279.97 259.20
  L 280.06 242.60
  A 2.65 2.53 -89.7 0 0 277.54 239.94
  L 262.62 239.86
  A 2.65 2.53 -89.7 0 0 260.08 242.50
  L 259.99 259.10
  A 0.85 0.85 0.0 0 0 260.84 259.95
  Z
  M 243.31 260.06
  Q 239.99 260.39 239.97 263.75
  Q 239.94 271.60 240.04 279.52
  Q 240.04 280.00 240.52 280.00
  L 259.22 280.00
  A 0.78 0.78 0.0 0 0 260.00 279.22
  L 260.00 260.79
  Q 260.00 260.15 259.35 260.13
  Q 247.11 259.69 243.31 260.06
  Z"
/>
<path fill="#eeeeee" d="
  M 22.33 207.29
  L 28.23 218.96
  L 20.58 220.09
  Q 19.94 220.19 19.96 219.54
  L 20.32 208.96
  Q 20.34 208.43 20.80 208.16
  L 22.33 207.29
  Z"
/>
<path fill="#eeeeee" d="
  M 0.00 239.59
  L 0.00 220.94
  L 0.26 220.34
  Q 0.45 219.91 0.92 219.92
  L 19.30 220.04
  A 0.70 0.69 -90.0 0 1 19.99 220.74
  L 19.99 239.30
  Q 19.99 239.88 19.41 239.91
  Q 9.69 240.32 0.00 239.59
  Z"
/>
<path fill="#eeeeee" d="
  M 300.00 220.40
  L 300.00 239.68
  L 280.42 239.88
  Q 280.00 239.88 280.00 239.46
  L 280.00 221.01
  A 0.92 0.92 0.0 0 1 280.88 220.09
  Q 290.29 219.69 300.00 220.40
  Z"
/>
<path fill="#eeeeee" d="
  M 260.84 259.95
  A 0.85 0.85 0.0 0 1 259.99 259.10
  L 260.08 242.50
  A 2.65 2.53 -89.7 0 1 262.62 239.86
  L 277.54 239.94
  A 2.65 2.53 -89.7 0 1 280.06 242.60
  L 279.97 259.20
  A 0.85 0.85 0.0 0 1 279.12 260.05
  L 260.84 259.95
  Z"
/>
<path fill="#eeeeee" d="
  M 40.00 280.00
  L 39.97 260.50
  Q 39.96 260.00 39.46 260.00
  L 20.56 260.00
  A 0.56 0.56 0.0 0 0 20.00 260.56
  L 20.00 279.47
  Q 20.00 279.94 20.46 279.94
  L 40.00 280.00
  L 39.69 300.00
  L 23.94 300.00
  L 20.58 299.48
  Q 20.00 299.39 20.00 298.80
  L 20.00 280.73
  A 0.89 0.89 0.0 0 0 19.07 279.84
  Q 8.71 280.32 0.00 279.58
  L 0.00 261.19
  L 0.27 260.30
  Q 0.41 259.84 0.89 259.84
  L 19.47 260.06
  Q 20.00 260.07 20.00 259.53
  L 20.00 241.16
  A 1.16 1.15 -90.0 0 1 21.15 240.00
  L 38.50 240.00
  Q 40.06 240.00 40.05 241.56
  L 39.88 259.56
  Q 39.87 260.00 40.31 260.00
  L 57.68 260.00
  A 2.21 2.20 -0.3 0 1 59.89 262.18
  L 60.04 279.15
  A 0.84 0.83 89.7 0 1 59.21 280.00
  L 40.00 280.00
  Z"
/>
<path fill="#ffffff" d="
  M 40.00 280.00
  L 20.46 279.94
  Q 20.00 279.94 20.00 279.47
  L 20.00 260.56
  A 0.56 0.56 0.0 0 1 20.56 260.00
  L 39.46 260.00
  Q 39.96 260.00 39.97 260.50
  L 40.00 280.00
  Z"
/>
<path fill="#eeeeee" d="
  M 243.31 260.06
  Q 247.11 259.69 259.35 260.13
  Q 260.00 260.15 260.00 260.79
  L 260.00 279.22
  A 0.78 0.78 0.0 0 1 259.22 280.00
  L 240.52 280.00
  Q 240.04 280.00 240.04 279.52
  Q 239.94 271.60 239.97 263.75
  Q 239.99 260.39 243.31 260.06
  Z"
/>
<path fill="#eeeeee" d="
  M 300.00 260.40
  L 300.00 279.81
  L 280.52 279.97
  Q 279.95 279.97 279.94 280.54
  L 279.60 300.00
  L 260.47 300.00
  Q 259.64 290.84 260.09 280.89
  A 1.06 1.06 0.0 0 1 261.16 279.88
  L 279.35 280.05
  Q 280.00 280.06 280.00 279.40
  L 280.00 260.99
  A 0.92 0.91 89.0 0 1 280.88 260.07
  Q 290.41 259.72 300.00 260.40
  Z"
/>
<path fill="#eeeeee" d="
  M 219.21 271.75
  Q 220.33 275.06 220.15 278.33
  A 1.50 1.49 -1.3 0 1 218.79 279.75
  C 215.51 280.07 209.25 280.81 207.50 277.71
  L 219.21 271.75
  Z"
/>
<path fill="#ffffff" d="
  M 0.00 279.58
  Q 8.71 280.32 19.07 279.84
  A 0.89 0.89 0.0 0 1 20.00 280.73
  L 20.00 298.80
  Q 20.00 299.39 20.58 299.48
  L 23.94 300.00
  L 0.00 300.00
  L 0.00 279.58
  Z"
/>
<path fill="#ffffff" d="
  M 300.00 279.81
  L 300.00 300.00
  L 279.60 300.00
  L 279.94 280.54
  Q 279.95 279.97 280.52 279.97
  L 300.00 279.81
  Z"
/>
<path fill="#eeeeee" d="
  M 79.41 300.00
  L 60.47 300.00
  Q 59.61 290.81 60.12 281.13
  Q 60.18 279.95 61.36 279.96
  L 79.41 280.09
  A 0.46 0.46 0.0 0 1 79.86 280.52
  Q 80.47 290.35 79.41 300.00
  Z"
/>
<path fill="#eeeeee" d="
  M 239.40 300.00
  L 221.44 300.00
  L 220.52 299.74
  Q 219.94 299.57 219.95 298.97
  L 220.13 280.81
  A 0.81 0.81 0.0 0 1 220.94 280.00
  L 238.70 280.00
  Q 239.79 280.00 239.86 281.09
  Q 240.47 290.72 239.40 300.00
  Z"
/>
<path fill="#eeeeee" d="
  M 101.17 281.33
  L 120.00 286.79
  L 119.56 300.00
  L 101.94 300.00
  L 100.75 299.70
  Q 100.27 299.57 100.22 299.09
  Q 99.20 290.01 101.17 281.33
  Z"
/>
<path fill="#eeeeee" d="
  M 198.46 281.50
  Q 198.55 282.22 199.21 282.27
  Q 199.68 282.31 199.72 282.78
  Q 200.46 291.41 199.57 300.00
  L 180.76 300.00
  Q 179.43 293.49 180.00 286.79
  L 198.46 281.50
  Z"
/>
<path fill="#ffffff" d="
  M 120.00 286.79
  L 140.29 289.75
  Q 140.43 293.64 140.03 297.50
  Q 139.76 300.05 142.44 300.00
  L 119.56 300.00
  L 120.00 286.79
  Z"
/>
<path fill="#ffffff" d="
  M 180.00 286.79
  Q 179.43 293.49 180.76 300.00
  L 159.44 300.00
  Q 160.61 294.78 159.50 289.54
  Q 169.85 288.94 180.00 286.79
  Z"
/>
<path fill="#eeeeee" d="
  M 159.50 289.54
  Q 160.61 294.78 159.44 300.00
  L 142.44 300.00
  Q 139.76 300.05 140.03 297.50
  Q 140.43 293.64 140.29 289.75
  Q 149.91 290.28 159.50 289.54
  Z"
/>
</svg>
